<?xml version="1.0" encoding="UTF-8"?>
<svg width="150px" height="150px" viewBox="0 0 150 150" version="1.1" xmlns="http://www.w3.org/2000/svg" xmlns:xlink="http://www.w3.org/1999/xlink">
    <!-- Generator: Sketch 43.1 (39012) - http://www.bohemiancoding.com/sketch -->
    <title>Bitmap*</title>
    <desc>Created with Sketch.</desc>
    <defs>
        <circle id="path-1" cx="75" cy="75" r="75"></circle>
        <polygon id="path-3" points="37.50005 76 75 76 75 0 37.50005 0 9.99999975e-05 0 9.99999975e-05 76"></polygon>
    </defs>
    <g id="user-services" stroke="none" stroke-width="1" fill="none" fill-rule="evenodd">
        <g id="Invite-" transform="translate(-105.000000, -120.000000)">
            <g id="Bitmap*" transform="translate(105.000000, 120.000000)">
                <mask id="mask-2" fill="white">
                    <use xlink:href="#path-1"></use>
                </mask>
                <use id="Oval" fill="#0094D9" xlink:href="#path-1"></use>
                <g id="Page-1" mask="url(#mask-2)">
                    <g transform="translate(38.000000, 36.000000)">
                        <polygon id="Page-1" stroke="none" fill="#000000" fill-rule="evenodd" opacity="0.200000003" points="25.2749023 6.02294922 29.027832 9.81665039 12.8497314 26.2694092 7.91906738 24.0657959 7 36 22.15625 51.1123047 24.861084 53.9460449 22.8522949 56 19.8603516 53.0849609 0.072265625 73.842041 52.8728027 127.873047 118.941406 70.3710938 64.9335938 8.14135742 52.8728027 9.49072266 48.8381348 6.02294922"></polygon>
                        <mask id="mask-4" fill="white">
                            <use xlink:href="#path-3"></use>
                        </mask>
                        <g id="Clip-2" stroke="none" fill="none"></g>
                        <path d="M31.0187988,47.2919922 C32.8637988,46.0309922 34.597,44.9833984 37,44.9833984 C39.403,44.9833984 42.0832227,45.7358262 43.9282227,46.9968262 L45.0001,48 L73.0001,76 L2.0001,76 L30.0001,48 L31.0187988,47.2919922 Z M20.0001,54 L9.99999975e-05,74 L9.99999975e-05,33 L20.0001,53 L20.0001,54 Z M1.0001,30 L8.0001,24 L8.0001,37 L1.0001,31 L1.0001,30 Z M37.0001,0 C41.9031,0 46.2421,2.363 48.9801,6 L25.0201,6 C27.7571,2.363 32.0971,0 37.0001,0 L37.0001,0 Z M45.5001,25 L39.0001,25 L39.0001,18.5 C39.0001,17.672 38.3281,17 37.5001,17 C36.6721,17 36.0001,17.672 36.0001,18.5 L36.0001,25 L29.5001,25 C28.6721,25 28.0001,25.672 28.0001,26.5 C28.0001,27.328 28.6721,28 29.5001,28 L36.0001,28 L36.0001,34.5 C36.0001,35.328 36.6721,36 37.5001,36 C38.3281,36 39.0001,35.328 39.0001,34.5 L39.0001,28 L45.5001,28 C46.3281,28 47.0001,27.328 47.0001,26.5 C47.0001,25.672 46.3281,25 45.5001,25 L45.5001,25 Z M51.0611,51 C48.4181,46.231 43.3381,43 37.5001,43 C31.6611,43 26.5821,46.231 23.9391,51 L22.0001,51 L10.0001,39 L10.0001,8 L65.0001,8 L65.0001,39 L53.0001,51 L51.0611,51 Z M67.0001,24 L74.0001,30 L74.0001,31 L67.0001,37 L67.0001,24 Z M55.0001,54 L55.0001,53 L75.0001,33 L75.0001,74 L55.0001,54 Z" id="Fill-1" stroke="none" fill="#FFFFFF" fill-rule="evenodd" mask="url(#mask-4)"></path>
                    </g>
                </g>
                <g id="Bitmap" mask="url(#mask-2)"></g>
            </g>
        </g>
    </g>
</svg>