<?xml version="1.0" encoding="UTF-8"?>
<svg width="60px" height="26px" viewBox="0 0 60 26" version="1.1" xmlns="http://www.w3.org/2000/svg" xmlns:xlink="http://www.w3.org/1999/xlink">
    <!-- Generator: Sketch 43.1 (39012) - http://www.bohemiancoding.com/sketch -->
    <title>logo</title>
    <desc>Created with Sketch.</desc>
    <defs>
        <polygon id="path-1" points="0.123882353 7.73109244 17.1151429 7.73109244 17.1151429 0.127764706 0.123882353 0.127764706 0.123882353 7.73109244"></polygon>
        <polygon id="path-3" points="15.2077311 19.1399328 15.2077311 0.0448067227 0.0801848739 0.0448067227 0.0801848739 19.1399328 15.2077311 19.1399328"></polygon>
    </defs>
    <g id="user-services" stroke="none" stroke-width="1" fill="none" fill-rule="evenodd">
        <g id="Invite-" transform="translate(-150.000000, -39.000000)">
            <g id="logo" transform="translate(150.000000, 39.000000)">
                <g id="Group-3" transform="translate(34.957983, 17.612437)">
                    <mask id="mask-2" fill="white">
                        <use xlink:href="#path-1"></use>
                    </mask>
                    <g id="Clip-2"></g>
                    <path d="M14.470437,0.127764706 C13.9953109,2.93952941 11.5648908,5.08642017 8.61951261,5.08642017 C5.67262185,5.08642017 3.24371429,2.93952941 2.76842017,0.127764706 L0.123882353,0.127764706 C0.62102521,4.40137815 4.21211765,7.73112605 8.61951261,7.73112605 C13.0267395,7.73112605 16.6178319,4.40137815 17.1151429,0.127764706 L14.470437,0.127764706 Z" id="Fill-1" fill="#0094D9" mask="url(#mask-2)"></path>
                </g>
                <path d="M23.3967563,19.2709748 L23.4058319,0.168117647 L20.9305378,0.178033613 C20.0918824,0.178033613 19.2125546,1.06005042 19.2125546,1.90156303 L19.2041513,19.2709748 L23.3967563,19.2709748 Z" id="Fill-4" fill="#FFFFFF"></path>
                <path d="M15.850958,0.179579832 L1.73331092,0.187478992 C0.891798319,0.187478992 0.00994957983,1.06680672 0.00994957983,1.90529412 L3.36134454e-05,4.3807563 L5.82389916,4.37756303 L5.82389916,19.2804202 L8.29936134,19.2705042 C9.13784874,19.2705042 10.0173445,18.3884874 10.0173445,17.5469748 L10.0249076,4.37521008 L15.850958,4.37201681 L15.850958,0.179579832 Z" id="Fill-6" fill="#FFFFFF"></path>
                <path d="M38.111479,6.92689076 C38.111479,8.56352941 36.8830756,9.82016807 34.7820672,9.82016807 L31.4524874,9.82016807 L31.4524874,3.98033613 L34.6998824,3.98033613 C36.801395,3.98033613 38.111479,4.9902521 38.111479,6.87361345 L38.111479,6.92689076 Z M35.0550084,0.187058824 L27.2412269,0.178319328 L27.2412269,19.2732773 L29.7250924,19.2704202 C30.5635798,19.2704202 31.4430756,18.3885714 31.4430756,17.5470588 L31.4429076,13.5573109 L34.6457647,13.56 C38.9303025,13.56 42.3687899,11.2667227 42.3687899,6.84689076 L42.3687899,6.7902521 C42.3687899,2.88705882 39.6123193,0.187058824 35.0550084,0.187058824 L35.0550084,0.187058824 Z" id="Fill-8" fill="#FFFFFF"></path>
                <g id="Group-12" transform="translate(44.705882, 0.133445)">
                    <mask id="mask-4" fill="white">
                        <use xlink:href="#path-3"></use>
                    </mask>
                    <g id="Clip-11"></g>
                    <path d="M4.3374958,6.74010084 C4.3374958,4.85690756 5.64741176,3.84682353 7.74909244,3.84682353 L10.9964874,3.84682353 L10.9964874,9.68665546 L7.66690756,9.68665546 C5.56589916,9.68665546 4.3374958,8.43001681 4.3374958,6.79337815 L4.3374958,6.74010084 Z M0.0801848739,6.6567395 L0.0801848739,6.71337815 C0.0801848739,11.1333782 3.51867227,13.4266555 7.80321008,13.4266555 L11.0060672,13.4237983 L11.0058992,17.4135462 C11.0058992,18.2550588 11.885395,19.1370756 12.7238824,19.1370756 L15.2077479,19.1399328 L15.2077479,0.0448067227 L7.39396639,0.0535462185 C2.83665546,0.0535462185 0.0801848739,2.75354622 0.0801848739,6.6567395 L0.0801848739,6.6567395 Z" id="Fill-10" fill="#FFFFFF" mask="url(#mask-4)"></path>
                </g>
            </g>
        </g>
    </g>
</svg>